<?xml version="1.0" standalone="no"?><svg xmlns="http://www.w3.org/2000/svg" viewBox="0 0 1440 320"><path fill="#ef1257" fill-opacity="1" d="M0,128L26.7,128C53.3,128,107,128,160,117.3C213.3,107,267,85,320,101.3C373.3,117,427,171,480,176C533.3,181,587,139,640,112C693.3,85,747,75,800,90.7C853.3,107,907,149,960,154.7C1013.3,160,1067,128,1120,144C1173.3,160,1227,224,1280,213.3C1333.3,203,1387,117,1413,74.7L1440,32L1440,320L1413.3,320C1386.7,320,1333,320,1280,320C1226.7,320,1173,320,1120,320C1066.7,320,1013,320,960,320C906.7,320,853,320,800,320C746.7,320,693,320,640,320C586.7,320,533,320,480,320C426.7,320,373,320,320,320C266.7,320,213,320,160,320C106.7,320,53,320,27,320L0,320Z"></path></svg>