<?xml version="1.0" encoding="utf-8"?>
<!-- Generator: Adobe Illustrator 22.0.1, SVG Export Plug-In . SVG Version: 6.00 Build 0)  -->
<svg version="1.1" xmlns="http://www.w3.org/2000/svg" xmlns:xlink="http://www.w3.org/1999/xlink" x="0px" y="0px"
	 viewBox="0 0 1235.8 1267.8" style="enable-background:new 0 0 1235.8 1267.8;" xml:space="preserve">
<style type="text/css">
	.st0{display:none;}
	.st1{display:inline;fill:#FFFFFF;stroke:#000000;stroke-miterlimit:10;}
	.st2{display:inline;fill:#6310E5;stroke:#000000;stroke-miterlimit:10;}
	.st3{fill:#FFFFFF;stroke:#000000;stroke-miterlimit:10;}
	.st4{fill:#D3D3D3;}
	.st5{fill:#EFEFEF;}
	.st6{fill:#AD0032;}
	.st7{fill:#D10041;stroke:#000000;stroke-miterlimit:10;}
	.st8{fill:#C1003C;}
	.st9{fill:#FFFFFF;stroke:#211915;stroke-linecap:round;stroke-miterlimit:10;}
</style>
<g id="Capa_5" class="st0">
	<path class="st1" d="M727,1314.4c-8.3,0.8-15.4-8.3-17.9-11.5c-8.4-10.9-8.2-23.5-8.1-28.2c0.5-17.8,10.3-30,14.5-35.1
		c8-9.7,16.4-14.2,28.3-20.7c13-7,23.4-10.2,38.4-14.8c13.1-4,22.1-6.8,34.7-8.6c16.6-2.4,29.3-1.7,42.1-0.8
		c12.9,0.8,30.2,2.8,50.5,7.7c16.1,5.6,38.6,15.7,58.2,32c3.6,3,10.5,9.1,15.7,19.1c6.1,11.7,9.9,28.4,5.1,31.5
		c-4.7,3.1-13.6-9.8-31.5-20.7c-22.1-13.4-43.5-15.1-62.7-16.5c-32.3-2.5-56.9,4.4-70.1,8.3c-18.6,5.4-32,12-44.9,18.4
		c-16.7,8.3-25.1,12.4-31.6,19.1C737.2,1304.3,735.1,1313.6,727,1314.4z"/>
</g>
<g id="Capa_6" class="st0">
	<path class="st2" d="M797.8,1346.9c13.9,3.7,22.2,3.2,24.3,3c7.4-0.6,12.8-1,17.7-4.7c6.9-5.3,5.3-11.3,11.7-23
		c5.3-9.7,11.9-15.5,17-20c4.7-4.1,13.8-12,27.7-16.7c15.4-5.2,27.4-3.1,27.7-5.3c0.3-2.2-10.8-6.3-21.7-8
		c-11.8-1.9-32.6-2.6-68.7,15c-23.4,11.4-64.9,36.3-60.7,49C774.3,1340.7,782.2,1342.8,797.8,1346.9z"/>
</g>
<g id="Capa_7" class="st0">
	<path class="st1" d="M885.8,1351.6c1.4,0.6,3.4,1.3,5.9,2c1.5,0.4,3.8,0.9,9.7,1.4c4,0.3,6.9,0.6,11,0.6c2.1,0,5.4-0.1,12.9-0.8
		c11-1.1,16.5-1.7,17.3-3.3c1.9-3.5-2.5-9.5-10.3-20.2c-2.9-4-5-6.2-10.2-13.3c-1.4-1.9-3-3.8-4.4-5.7c-2.7-4-3.3-5.9-4.8-6
		c-1-0.1-1.8,0.7-4.8,4.2c-2.9,3.4-4.4,5.1-5.2,6.3c-2.7,3.7-4,5.9-7.1,10.7c-5.1,8.1-4.9,7.2-6,9.2
		C888.3,1339.8,886.4,1344.6,885.8,1351.6z"/>
</g>
<g id="Capa_10" class="st0">
	<path class="st1" d="M925.5,1236.4c-19.3-21.8-51.5-25.1-72.2-17.3c-13.1,5-12.2,10.8-34,22c-23.5,12-32.5,9.2-38.5,18.5
		c-9,13.9-3,41.4,12.8,50.9c17.5,10.5,32-10.2,71.4-10.8c39.2-0.6,54.3,19,68,9.6C948.4,1298.6,945.7,1259.2,925.5,1236.4z"/>
	<path class="st1" d="M-236.2,1162.1"/>
</g>
<g id="Capa_2" class="st0">
	
		<image style="display:inline;overflow:visible;" width="501" height="500" xlink:href="../Imagenes/logotip.png"  transform="matrix(5.99 0 0 5.99 -896.9546 -448.3109)">
	</image>
</g>
<g id="Capa_1">
</g>
<g id="Página">
</g>
<g id="Capa_8">
</g>
<g id="Capa_3">
	<g id="Capa_12">
	</g>
</g>
<g id="Capa_4">
</g>
<g id="Capa_9">
</g>
<g id="Capa_11">
	
		<text transform="matrix(1 0 0 1 1515.9537 765.8118)" style="fill:#FFFFFF; font-family:'SpaceQuest'; font-size:608.9082px; letter-spacing:60;">FocuS</text>
	
		<text transform="matrix(1.0519 0 0 1 1870.7897 1039.8494)" style="fill:#D10041; font-family:'MyriadPro-Regular'; font-size:221.4212px; letter-spacing:110.3;">AGENCY</text>
	<g>
		<path class="st3" d="M161.2,1015.2c-8.2,4.2-53.3-58-84.5-124.5c-12.3-26.2-22.3-54.1-42.3-109.9c-11.2-31.2-15.8-46.2-19.9-64.7
			C8.6,689,6.4,665.2,4.1,641.6c-1.1-12.1-3-29-3.5-51.4c-0.8-40.2,1.9-78.6,5.4-110c1.7-15.4,7.9-33.7,12-49.5
			c4.2-16,10.9-40.5,10.9-40.5c3.5-11.5,6.7-21.3,9.3-29c3.5-10.2,6.4-18.1,8.4-23.8c4.4-12,6.6-18,8.7-23
			c4-9.6,10.1-24.7,20.8-39.8c6.6-9.3,12-14.9,22.9-25.9c5.9-6,19.1-18.8,37.9-33.2c10.5-8,23.8-17.2,39.8-26.4
			c14.9-8.7,30.3-17.3,46.4-26c18.9-10.1,37.3-19.4,55.3-28.1c28.6-13.7,57.9-27.3,88.1-40.9c20-9,36.4-16.1,47.7-21
			c20.8-9,45.6-19.7,78-32.7c13.3-5.3,31-12.3,52-20.2c7.5-2.8,16.9-6.9,36.1-14c2.7-1,8.5-3.1,16.6-4.6c5.2-0.9,9.7-1.2,12.8-1.3
			c4.5,0.2,9.4,0.6,14.4,1.3c18.7,2.7,34.1,8.9,45.7,15c9.3,4.9,18.6,9.9,28,14.8l80.8,42.9l95.1,50.5l54.7,34.5l30.3,28.6
			l21.9,28.6l16,25.3l16,30.3l10.9,32l10.9,38.7l5.9,33.7l2.1,32.6l0.8,15.6v16.6v15.2l-1.1,15.8l-2.3,17.3l-4.4,26.7
			c-1.8,6.6-3.5,13.3-5.3,20c-2,7.6-3.9,15.1-5.8,22.6c-2.2,5.1-4.4,10.1-6.6,15.2c-3.1,8.8-6.1,17.7-9.2,26.5
			c-4.4-9.9-8.8-19.9-13.2-29.8l-9.3-16c-4.7-9.1-9.5-18.1-14.2-27.2c-4.7-7-9.5-14-14.2-20.9c-4.6-6.7-12.2-16.9-23.4-27.6
			c-15.9-15.3-30.6-23.7-38.2-28.1c-22.1-12.8-38.3-22.6-50.9-30.4c-35.5-22.1-38.7-24.8-58.4-34.6c-8.9-4.5-12.6-6-30-14.7
			c-19.3-9.7-21.6-11.3-34.3-17.5c-21.6-10.6-32.4-15.9-43.7-19.3c-8.1-2.4-25.1-6.7-47-6.6c-0.2,0-0.6,0-1.1,0
			c-13.6,0.2-25.9,2-45.8,6.8c-8.3,2-19.5,4.8-34.4,9.6c-8.2,2.7-17.9,6.3-37,13.5c-21.8,8.2-21.3,8.2-33.2,12.6
			c-21.8,8.1-23.6,8-41,14.5c-17.9,6.6-31.1,12.3-42.3,17c-19.4,8.2-34.9,15.5-44.8,20.2c-14.7,7-31.5,15.4-49.9,25.3
			c-20.6,10.5-50.8,28.9-79.6,60c-29.5,31.9-43.7,62.3-56.8,90.9c-7.6,16.6-29.5,67.2-39.1,138c-9.4,69.5-2.6,126.1,2.5,156.3
			C142.5,969.3,167.9,1011.8,161.2,1015.2z"/>
		<path class="st4" d="M1008.8,600.9c-1.3,0.1-2-3.8-5.1-11.6c-0.7-1.7-1.9-4.5-4.5-10.1c-1.4-3.1-3.1-6.7-11.3-21.2
			c-8.4-14.9-8.4-14.5-13.6-23.9c-1.9-3.5-3.4-6.4-6-10.9c-3.3-5.7-6-10.1-8.3-13.5c-3.8-5.8-6.6-9.7-10.4-13.9c0,0-0.1-0.1-0.2-0.2
			c-2.1-2.4-7.9-8.7-12.6-13.4c-3-2.9-7.2-6.9-13-11.3c0,0,0,0,0,0l0,0c0,0,0,0,0,0c-6.1-4.9-15.5-11.7-27.5-19.7
			c-7.4-4.9-13.8-8.8-26.5-16.6c-12.4-7.6-15.2-9.1-31.1-18.6c-24.5-14.7-22.5-13.9-31.6-19.1c-4.7-2.7-7.8-4.2-37.8-19.9
			c-7.6-4-22-11.5-40.5-20.7c-21.6-10.8-27.8-13.6-35.2-16.3c-6.2-2.3-16-6-28.3-8.7c-25.5-5.6-43.2-3-43.2-3.7
			c-0.1-2.7,100.3-26.6,210.5,2.7c36.1,9.6,64.6,22.6,84.1,32.8c1.3,0.7,2.3,1.3,3,1.8c21.6,12.8,49.8,29.5,73.7,63.1
			c28.7,45.9,40,85.8,38.1,100.2c-1.6,12.3-5.1,23.4-5.1,23.4c-1.4,4.4-3.2,9.3-4.9,14.1c-2.2,6.1-3,7.9-5.6,15
			c-1.9,5.4-2.9,8.1-3.3,9.3C1010.2,597.8,1009.9,600.8,1008.8,600.9z"/>
		<path class="st5" d="M1020.6,568.1c-0.2,0,0.1-1.5,0.2-1.9c1.4-6.7,2.9-18.1,5.2-34.5c0.5-3.7,2.1-15,1.2-26.4
			c-0.4-5.1-1.7-17.1-15.3-43.8c-9.4-18.6-16.2-32-29.4-47.3c-15-17.4-29.4-26.9-47-38.2c-30.4-19.6-56.9-29.8-66.7-33.3
			c-44.6-15.9-80.8-18-120-19.9c-25.3-1.2-70.5-3.2-128,6.5c-42.1,7.1-84.5,23.2-169.6,54.6c-67.5,24.9-95,38.3-104.4,42.9
			c-45,22.3-72.3,35.7-102.7,63.1c-41.5,37.4-62.4,77.1-73.6,98.8c-23.4,45.3-31.7,83.6-37.5,111.9c-14.6,70-10.9,125.2-10,136.5
			c7.5,100.4,47.6,173.3,37.7,177.7c-3.5,1.6-11.1-6.8-26.3-23.7c0,0-14.5-16.1-25-32.7c-40.4-64-57.5-141-57.5-141
			c-39-193.7,43.6-361.8,43.6-361.8C153.9,337,241.3,270.6,286.7,236c63-47.9,121.2-74.7,136.4-81.5c51.9-23.1,93.3-33.5,103-35.9
			c53.7-13.1,96.6-15.3,129.6-17c28.6-1.5,48.8-1,89.4-0.1c65.9,1.5,81.1,5.3,91.2,8.5c24.8,7.7,48.6,22.8,66.6,33.5
			c7.6,4.6,15.3,9.5,24.1,16.2c0,0,15,11.4,29,26.2c33.6,35.3,55,81.8,55,81.8c19.9,43.3,24.9,80.4,28,104.8
			c3.1,24.4,3.4,45.7,3.6,56.5c0.2,17.6,0.5,34.5-2.2,57.3c0,0-3.8,32.5-13.5,63.6c-0.2,0.7-0.8,2.7-1.6,5.1
			C1024.7,556.9,1021,568.2,1020.6,568.1z"/>
		<path class="st6" d="M228.1,674.4c2.1-0.1,4.2,2,14.3,21.5c3,5.8,4.3,8.7,6.2,12.1c4.4,8,9.2,15.8,13.6,23.9
			c1.8,3.5,4.4,8.3,7.9,13.9c14.7,23.7,42.6,49.3,42.6,49.3c13.7,11.9,31.8,23,67.6,44.7c31.1,18.9,58.5,34.6,84.6,48.7
			c4.7,2.5,17.9,9.6,35.4,18.4c47,23.5,60.7,27,67,28.4c28.1,6.3,47,2.2,47.1,3.1c0.1,2.6-140.7,13.8-210.5-2.7
			c-46.1-10.9-84.1-32.8-84.1-32.8c-1.3-0.7-2.3-1.3-3-1.8c-21.6-12.8-49.8-29.5-73.7-63.1c0,0-30.7-43.8-33.3-99.8
			c-0.5-10.9,2.6-27.4,5.1-37.9c0.1-0.5,1.8-7,5.6-15C223.9,678.1,225.6,674.6,228.1,674.4z"/>
		<path class="st7" d="M1074.6,251.6c8.2-4.2,53.3,58,84.5,124.5c12.3,26.2,22.3,54.1,42.3,109.9c11.2,31.2,15.8,46.2,19.9,64.7
			c5.9,27.1,8.2,50.9,10.4,74.5c1.1,12.1,3,29,3.5,51.4c0.8,40.2-1.9,78.6-5.4,110c-1.7,15.4-7.9,33.7-12,49.5
			c-4.2,16-10.9,40.5-10.9,40.5c-3.5,11.5-6.7,21.3-9.3,29c-3.5,10.2-6.4,18.1-8.4,23.8c-4.4,12-6.6,18-8.7,23
			c-4,9.6-10.1,24.7-20.8,39.8c-6.6,9.3-12,14.9-22.9,25.9c-5.9,6-19.1,18.8-37.9,33.2c-10.5,8-23.8,17.2-39.8,26.4
			c-14.9,8.7-30.3,17.3-46.4,26c-18.9,10.1-37.3,19.4-55.3,28.1c-28.6,13.7-57.9,27.3-88.1,40.9c-20,9-36.4,16.1-47.7,21
			c-21.3,9.2-40.2,17-78,32.7c-8.9,3.7-21.5,8.9-37.9,15.4c-16.7,6.7-7.5,2.8-33,12.8c-8.9,3.5-13.2,5.2-19.8,7.2
			c-9.9,3-18.2,4.7-23.9,5.6c-7.2-0.3-15.9-1.2-25.6-3.5c-10.8-2.6-19.8-6.2-26.7-9.5c-12.9-6.4-25.8-12.7-38.6-19.1l-80.8-42.9
			l-95.1-50.5l-54.7-34.5l-30.3-28.6l-21.9-28.6l-16-25.3l-16-30.3l-10.9-32l-10.9-38.7l-5.9-33.7l-2.1-32.6l-0.8-15.6v-16.6V810
			l1.1-15.8l2.3-17.3l4.4-26.7c1.7-6.6,3.4-13.3,5.3-20c2.2-8.1,4.4-16.1,6.7-23.9c2.1-6,4.2-12,6.3-18c3.1-4.8,6.1-9.7,9.2-14.5
			c4.2,5.9,8.4,11.8,12.6,17.7c4.3,7.7,8.6,15.4,12.9,23c4.4,8.6,8.8,17.3,13.3,25.9c3.8,6.5,7.6,12.9,11.4,19.4
			c6.3,7.6,15.1,17.4,26.5,28c3.8,3.5,15.9,14.5,35.1,27.8c21.4,14.8,20,11.2,50.9,30.4c35.5,22.1,38.7,24.8,58.4,34.6
			c8.9,4.5,12.6,6,30,14.7c19.3,9.7,21.6,11.3,34.3,17.5c21.6,10.6,32.4,15.9,43.7,19.3c8.1,2.4,25.1,6.7,47,6.6c0.2,0,0.6,0,1.1,0
			c13.6-0.2,25.9-2,45.8-6.8c8.3-2,19.5-4.8,34.4-9.6c8.2-2.7,17.9-6.3,37-13.5c21.8-8.2,21.3-8.2,33.2-12.6
			c21.8-8.1,23.6-8,41-14.5c17.9-6.6,31.1-12.3,42.3-17c19.4-8.2,34.9-15.5,44.8-20.2c14.7-7,31.5-15.4,49.9-25.3
			c20.6-10.5,50.8-28.9,79.6-60c29.5-31.9,43.7-62.3,56.8-90.9c7.6-16.6,29.5-67.2,39.1-138c9.4-69.5,2.6-126.1-2.5-156.3
			C1093.4,297.5,1067.9,255,1074.6,251.6z"/>
		<path class="st8" d="M215.6,699.8c0.4,0.1-5.4,14.6-5.9,35.5c-0.5,21.6,4.9,38.7,9.6,53c2.6,8,7.6,22.7,17.2,39.1
			c19.5,33,45.3,51.1,63.5,63.6c7.2,4.9,30.6,20.4,66.7,33.3c44.6,15.9,80.8,18,120,19.9c25.3,1.2,70.5,3.2,128-6.5
			c42.1-7.1,84.5-23.2,169.6-54.6c67.5-24.9,95-38.3,104.4-42.9c45-22.3,72.3-35.7,102.7-63.1c41.5-37.4,62.4-77.1,73.6-98.8
			c23.4-45.3,31.7-83.6,37.5-111.9c14.1-67.6,11.1-121.4,10-136.5c-7.3-104.5-47.8-170.7-37-176.3c8.3-4.3,35.8,32.7,50.5,54.9
			c38,57.6,52,113.2,57.5,141c39,193.7-43.6,361.8-43.6,361.8c-58.5,118.7-145.9,185.1-191.3,219.7c-63,47.9-121.2,74.7-136.4,81.5
			c-51.9,23.1-93.3,33.5-103,35.9c-53.7,13.1-96.6,15.3-129.6,17c-28.6,1.5-48.8,1-89.4,0.1c-65.9-1.5-81.1-5.3-91.2-8.5
			c-28.5-8.8-49.2-22.2-66.6-33.5c-12.6-8.2-32.3-21.1-53.2-42.4c-5.8-5.9-33.3-34.5-55-81.8c-21.8-47.4-25.9-87.5-29.4-121.6
			c-2.4-23.4-5.9-60,1.6-106.7C203.2,731.2,215,699.6,215.6,699.8z"/>
		<path class="st7" d="M431.9,560c-2.3-5.2,33.8-34.6,76.3-53.1c40.7-17.6,75-20,111-22.4c24.5-1.6,57.6-3.6,99.6,5.5
			c17.8,3.9,38.2,8.5,62.4,21.9c17.1,9.5,39.5,21.9,57.4,49.4c5,7.7,20.4,31.9,22.7,66.5c3.2,48.4-20.8,93.8-30.3,91.9
			c-8.7-1.8,3.1-41.8-19.8-85.7c-12.6-24.3-30-38.6-43.1-49.4c-26.2-21.6-50.6-30.5-65.5-35.8c-27.2-9.7-48.3-11.6-71.1-13.8
			c-3.3-0.3-48.8-4.3-99.4,3c-31.4,4.5-59.5,12.9-65.6,14.4c0,0,0,0,0,0C442.3,558.8,433,562.4,431.9,560z"/>
		<circle class="st9" cx="626.1" cy="655.3" r="65.5"/>
	</g>
</g>
</svg>
